<?xml version="1.0" encoding="UTF-8" standalone="no"?>
<svg
   xmlns:dc="http://purl.org/dc/elements/1.1/"
   xmlns:cc="http://creativecommons.org/ns#"
   xmlns:rdf="http://www.w3.org/1999/02/22-rdf-syntax-ns#"
   xmlns:svg="http://www.w3.org/2000/svg"
   xmlns="http://www.w3.org/2000/svg"
   xmlns:sodipodi="http://sodipodi.sourceforge.net/DTD/sodipodi-0.dtd"
   xmlns:inkscape="http://www.inkscape.org/namespaces/inkscape"
   width="50"
   height="50"
   viewBox="0 0 50 50"
   id="svg2"
   version="1.1"
   inkscape:version="1.0.2 (1.0.2+r75+1)"
   sodipodi:docname="euro.svg">
  <defs
     id="defs4" />
  <sodipodi:namedview
     id="base"
     pagecolor="#ffffff"
     bordercolor="#666666"
     borderopacity="1.0"
     inkscape:pageopacity="0.0"
     inkscape:pageshadow="2"
     inkscape:zoom="15.414928"
     inkscape:cx="17.485636"
     inkscape:cy="26.539054"
     inkscape:document-units="px"
     inkscape:current-layer="layer1"
     showgrid="true"
     units="px"
     showborder="true"
     inkscape:window-width="1920"
     inkscape:window-height="1016"
     inkscape:window-x="1920"
     inkscape:window-y="27"
     inkscape:window-maximized="1"
     inkscape:document-rotation="0">
    <inkscape:grid
       type="xygrid"
       id="grid4159" />
  </sodipodi:namedview>
  <metadata
     id="metadata7">
    <rdf:RDF>
      <cc:Work
         rdf:about="">
        <dc:format>image/svg+xml</dc:format>
        <dc:type
           rdf:resource="http://purl.org/dc/dcmitype/StillImage" />
        <dc:title></dc:title>
      </cc:Work>
    </rdf:RDF>
  </metadata>
  <g
     id="layer1"
     inkscape:label="Layer 1"
     inkscape:groupmode="layer">
    <g
       aria-label="€"
       id="text852"
       style="font-size:64.1202px;line-height:125%;font-family:sans-serif;letter-spacing:0px;word-spacing:0px;fill:none;stroke:#000000;stroke-width:1.50282px;stroke-linecap:butt;stroke-linejoin:miter;stroke-opacity:1">
      <path
         d="m 43.268622,5.1972864 v 6.6687516 q -2.849091,-3.2874129 -5.51033,-4.696304 -2.62993,-1.4088911 -5.823417,-1.4088911 -4.915465,0 -8.077642,3.1308692 -3.162178,3.1308689 -4.164056,8.9855949 h 18.065115 l -1.721978,3.850969 H 19.192237 q -0.06262,0.751408 -0.09393,1.471508 0,0.7201 0,1.815904 0,1.001879 0,1.721978 0.03131,0.7201 0.09393,1.471509 h 13.963677 l -1.753287,3.850969 h -11.70945 q 1.001878,5.854725 4.164056,9.016903 3.162177,3.162178 8.077642,3.162178 3.193487,0 5.823417,-1.408891 2.661239,-1.408891 5.51033,-4.696304 v 6.606134 q -2.786474,2.254226 -5.698182,3.381339 -2.8804,1.127113 -5.886034,1.127113 -7.42016,0 -12.273008,-4.53976 Q 14.58986,40.169095 13.337512,32.060144 H 6.7313781 l 1.721978,-3.850969 h 4.3519079 q 0,-0.7201 -0.03131,-1.4402 0,-0.751408 0,-1.753287 0,-1.095804 0,-1.815904 0.03131,-0.751408 0.03131,-1.471508 H 6.7313781 l 1.721978,-3.850969 H 13.337512 Q 14.58986,9.8309728 19.442707,5.2912125 24.295554,0.75145215 31.684406,0.75145215 q 3.068251,0 5.948651,1.12711295 2.911708,1.0958042 5.635565,3.3187213 z"
         style="fill:#333333;fill-opacity:1;stroke:none;stroke-width:1.50282px"
         id="path854" />
    </g>
  </g>
</svg>
