<?xml version="1.0" encoding="UTF-8" standalone="no"?>
<!-- Created with Inkscape (http://www.inkscape.org/) -->

<svg
   xmlns:dc="http://purl.org/dc/elements/1.1/"
   xmlns:cc="http://creativecommons.org/ns#"
   xmlns:rdf="http://www.w3.org/1999/02/22-rdf-syntax-ns#"
   xmlns:svg="http://www.w3.org/2000/svg"
   xmlns="http://www.w3.org/2000/svg"
   xmlns:sodipodi="http://sodipodi.sourceforge.net/DTD/sodipodi-0.dtd"
   xmlns:inkscape="http://www.inkscape.org/namespaces/inkscape"
   width="50"
   height="50"
   viewBox="0 0 50 50"
   id="svg2"
   version="1.1"
   inkscape:version="0.92.3 (2405546, 2018-03-11)"
   sodipodi:docname="sell.svg">
  <defs
     id="defs4" />
  <sodipodi:namedview
     id="base"
     pagecolor="#ffffff"
     bordercolor="#666666"
     borderopacity="1.0"
     inkscape:pageopacity="0.0"
     inkscape:pageshadow="2"
     inkscape:zoom="11.695546"
     inkscape:cx="4.1087949"
     inkscape:cy="22.481927"
     inkscape:document-units="px"
     inkscape:current-layer="layer1"
     showgrid="true"
     units="px"
     showborder="true"
     inkscape:window-width="1920"
     inkscape:window-height="1017"
     inkscape:window-x="1920"
     inkscape:window-y="26"
     inkscape:window-maximized="1">
    <inkscape:grid
       type="xygrid"
       id="grid4159" />
  </sodipodi:namedview>
  <metadata
     id="metadata7">
    <rdf:RDF>
      <cc:Work
         rdf:about="">
        <dc:format>image/svg+xml</dc:format>
        <dc:type
           rdf:resource="http://purl.org/dc/dcmitype/StillImage" />
        <dc:title></dc:title>
      </cc:Work>
    </rdf:RDF>
  </metadata>
  <g
     id="layer1"
     inkscape:label="Layer 1"
     inkscape:groupmode="layer">
    <path
       style="font-style:normal;font-variant:normal;font-weight:normal;font-stretch:normal;font-family:'Open Sans';-inkscape-font-specification:'Open Sans';fill:#333333;fill-opacity:1;stroke-width:1.52867985px"
       d="m 38.494024,33.024508 c 0.145602,3.680587 -2.386991,6.984405 -5.663992,8.42377 -1.844282,0.885334 -3.858149,1.361629 -5.879309,1.618071 0,2.311217 0,4.622434 0,6.933651 -1.282589,0 -2.565178,0 -3.847766,0 0,-2.221558 0,-4.443115 0,-6.664674 C 19.178361,43.284042 15.139656,42.942372 11.5,41.362822 c 0,-1.554094 0,-3.10819 0,-4.662284 3.65434,1.572763 7.623743,2.452401 11.602957,2.510461 0,-4.383344 0,-8.766687 0,-13.15003 -3.792562,-1.298172 -8.151169,-2.816521 -10.080815,-6.650665 -1.708613,-3.565407 -1.220808,-8.406667 2.057176,-10.9225573 2.252843,-1.8662436 5.155614,-2.7451949 8.023639,-3.0484161 0,-1.8131102 0,-3.6262205 0,-5.4393306 1.282588,0 2.565177,0 3.847766,0 0,1.7931859 0,3.5863718 0,5.3795578 3.624276,0.092811 7.229064,0.8469136 10.588816,2.2115959 -0.517012,1.3050407 -1.034026,2.6100813 -1.551038,3.9151223 -2.884399,-1.147586 -5.940212,-1.8733797 -9.037778,-2.09205 0,4.323571 0,8.647141 0,12.970712 3.806814,1.311596 8.152291,2.596021 10.439678,6.186491 0.809718,1.329973 1.106771,2.911782 1.103623,4.453079 z m -5.070701,0.388523 c 0.15127,-2.296486 -1.595927,-4.164689 -3.611476,-4.97037 -0.924867,-0.174266 -3.303306,-2.129432 -2.861124,-0.133107 0,3.534193 0,7.068387 0,10.60258 2.692403,-0.284815 6.049512,-1.586793 6.415713,-4.668704 0.03921,-0.274927 0.05689,-0.552751 0.05689,-0.830399 z M 17.107598,14.853557 c -0.154305,2.29515 1.453675,4.264064 3.475155,5.145486 1.165256,0.57752 3.029457,1.839009 2.520204,-0.263543 0,-3.400576 0,-6.801152 0,-10.2017283 -2.805826,0.3532033 -6.083341,2.0602163 -5.995359,5.3197853 z"
       id="path837"
       inkscape:connector-curvature="0" />
  </g>
</svg>
